PathFileType	3	(X/Y/Z)	D:\minhoCalibration\240510\subject1_KPNP\preferred\preferred14.trc
DataRate	CameraRate	NumFrames	NumMarkers	Units	OrigDataRate	OrigDataStartFrame	OrigNumFrames
200.0	200.0	33	10	mm	200.0	424	208	
Frame#	Time	Left_Ankle_Outer1			Left_Ankle_Inner1			Left_Knee_Outer1			Left_Knee_Inner1			Left_Wrist1			Right_Wrist1			Right_Knee_Inner1			Right_Knee_Outer1			Right_Ankle_Inner1			Right_Ankle_Outer1			
		X1	Y1	Z1	X2	Y2	Z2	X3	Y3	Z3	X4	Y4	Z4	X5	Y5	Z5	X6	Y6	Z6	X7	Y7	Z7	X8	Y8	Z8	X9	Y9	Z9	X10	Y10	Z10	
424	2.11	-445.87262	145.76627	-609.96301	-487.72192	160.47472	-572.77673	-313.00949	578.82928	-533.5481	-414.17798	559.87036	-491.24234	-320.1055	1033.5194	-730.04999	-633.24854	1115.2504	-553.81458	-575.92072	768.20697	-228.01268	-696.10895	821.42932	-232.23033	-722.36902	679.24982	-624.28674	-834.22046	678.39008	-616.1842
425	2.115	-448.5881	146.92023	-611.15771	-488.77377	161.88673	-572.00372	-309.51926	578.6933	-539.68219	-408.11356	560.03479	-491.5867	-322.89853	1034.1925	-739.65753	-626.01794	1120.781	-547.90839	-552.98029	785.17139	-214.03481	-671.6687	841.52979	-211.99762	-730.24487	699.22559	-597.87927	-839.70721	699.349	-587.88263
426	2.12	-451.67615	147.85545	-611.81268	-490.02383	163.08716	-571.08234	-306.81235	578.25476	-545.44122	-402.39508	560.15503	-491.87314	-327.06311	1034.3693	-748.22009	-619.90686	1126.1461	-541.07416	-529.99707	801.99585	-201.38158	-646.19135	863.31763	-192.37224	-738.08203	718.17963	-570.13794	-845.19348	722.68042	-552.88782
427	2.125	-454.51056	148.57274	-612.16901	-491.42438	163.91512	-569.71075	-304.92969	577.3526	-550.875	-396.83987	559.96838	-492.22882	-331.99911	1034.0065	-756.25946	-613.37366	1131.4117	-535.43896	-506.18576	818.56146	-191.88802	-618.79443	884.70575	-176.0285	-745.6889	735.78741	-540.40399	-852.1568	746.85718	-512.1673
428	2.13	-457.50391	148.75754	-611.51587	-493.2583	164.55948	-567.50275	-303.86853	576.30023	-556.01434	-391.40512	559.32623	-493.32874	-337.97842	1033.0192	-763.48047	-606.70135	1136.9053	-530.08215	-482.5546	834.6109	-183.91429	-589.91919	906.16382	-162.36977	-753.49976	752.27911	-509.36044	-856.91565	768.88538	-473.28839
429	2.135	-460.66797	148.50278	-609.86401	-494.81766	164.50406	-565.21753	-303.564	575.1123	-560.71045	-387.63782	558.54492	-493.72626	-344.66821	1031.4174	-769.82904	-600.6701	1142.1222	-524.79218	-459.46902	849.67133	-177.28333	-560.52655	927.22375	-151.43225	-761.36737	767.01392	-476.93207	-860.50964	790.63348	-432.00986
430	2.14	-463.46814	148.30898	-608.1109	-496.60208	164.43098	-562.22986	-304.08841	573.67981	-564.71582	-384.14764	557.9361	-495.40182	-351.50742	1029.3766	-775.5899	-594.54755	1147.2019	-519.75366	-436.77573	864.06262	-172.81677	-530.92731	947.83923	-143.11435	-768.98438	781.25452	-442.90182	-861.82367	811.52374	-389.96417
431	2.145	-466.81961	147.87579	-605.55017	-498.89545	164.31563	-558.76447	-305.12677	572.35577	-567.95422	-382.82278	556.34229	-496.93692	-358.64005	1026.7106	-780.31165	-586.71558	1151.7551	-515.4577	-415.01556	877.78693	-169.87695	-501.05017	967.27374	-137.86292	-776.32605	795.13782	-404.87225	-861.62854	832.67145	-344.79053
432	2.15	-470.40311	147.24876	-602.38715	-501.07764	163.68437	-554.89221	-306.39658	571.11444	-570.43317	-382.68719	556.93268	-494.62698	-365.91437	1023.5287	-784.16577	-580.90045	1156.8383	-511.30264	-394.20206	890.97125	-168.1286	-471.26028	985.07428	-136.13419	-781.85858	808.09662	-362.99832	-858.83142	853.487	-297.35663
433	2.155	-473.87036	146.68842	-599.34149	-503.5708	163.21786	-550.89056	-307.78592	569.82892	-572.32251	-383.10956	555.72772	-495.27264	-373.20981	1019.8902	-787.16461	-574.46906	1161.0872	-508.12585	-374.7579	903.36902	-167.14899	-443.29166	1001.9971	-135.99837	-784.90051	821.36658	-317.44931	-852.94879	874.21545	-247.65059
434	2.16	-477.67725	146.08226	-595.60712	-506.64203	162.66464	-546.61926	-309.36884	568.9353	-572.94781	-383.86539	555.58142	-494.32077	-380.32516	1015.9423	-789.46246	-568.23859	1166.1184	-504.7822	-357.004	915.38794	-167.0155	-416.87274	1017.223	-138.33511	-784.57599	834.71722	-268.72208	-843.21283	894.84485	-196.33366
435	2.165	-481.74222	145.41634	-591.79169	-509.93491	162.18765	-542.28247	-311.59604	567.66284	-572.5531	-386.18402	554.65045	-492.42136	-387.05365	1011.8583	-791.52515	-562.4682	1170.6566	-502.77655	-339.95224	926.71002	-167.3819	-393.07953	1031.0358	-142.20396	-779.61646	848.4115	-218.28844	-828.68182	915.38861	-144.80501
436	2.17	-486.18713	144.86243	-587.81879	-513.89008	161.69093	-538.16962	-313.90982	566.2403	-571.37018	-387.4696	553.98608	-491.48877	-393.68561	1007.6175	-792.67798	-556.5733	1174.6151	-501.00363	-324.77924	937.63861	-168.56911	-371.49692	1042.8083	-147.87773	-770.73798	863.07581	-164.11099	-810.41766	936.60468	-90.899025
437	2.175	-490.98318	144.4731	-584.07611	-518.02264	161.11081	-534.07208	-316.60651	564.85101	-569.09393	-389.16281	553.71326	-488.97369	-400.05472	1003.351	-793.14691	-550.97601	1177.9032	-499.77054	-311.03882	947.64514	-170.17009	-353.11353	1053.033	-154.24847	-756.51392	878.3313	-109.28857	-787.01727	957.86115	-37.684967
438	2.18	-496.08295	144.24562	-580.64758	-522.47235	160.75465	-530.47552	-318.95251	563.58527	-566.6286	-392.12265	552.85626	-485.58945	-405.77399	999.47748	-793.19318	-546.09558	1181.016	-499.62466	-299.28909	956.448	-171.90971	-337.97186	1061.8071	-161.0052	-736.94153	893.08185	-51.886414	-758.72668	979.29169	15.39024
439	2.185	-501.10156	144.04185	-577.56964	-526.68665	160.19298	-527.07733	-320.90704	562.57635	-563.9259	-394.40585	552.31219	-482.56552	-410.66232	996.3139	-793.29083	-541.76129	1183.3535	-499.87195	-290.14709	964.57617	-174.11829	-326.53986	1069.4561	-167.3797	-712.06219	909.4787	4.2731118	-725.46558	1001.2258	66.38813
440	2.19	-505.93811	143.72391	-574.61267	-530.94031	159.6618	-524.07092	-323.68564	561.11462	-560.20001	-396.90442	551.47394	-479.67029	-415.38416	993.073	-792.49652	-538.20972	1185.4446	-500.88846	-283.83557	971.28601	-175.94406	-318.62448	1075.9764	-173.09131	-681.40509	926.49054	59.182793	-686.82281	1022.8189	115.02383
441	2.195	-510.15247	143.32817	-572.00732	-535.18372	158.8665	-521.42719	-325.51733	560.02795	-557.04999	-398.83508	551.0144	-477.24017	-418.96033	990.39178	-791.32013	-535.4527	1187.0287	-502.40652	-281.00336	977.09497	-177.59357	-313.94543	1081.3219	-177.86984	-645.29749	945.74377	110.92685	-642.77576	1044.6931	160.59552
442	2.2	-514.052	142.4967	-569.58478	-538.771	158.03772	-518.93433	-327.9411	558.59473	-553.33667	-402.56503	549.85681	-473.40323	-421.40375	988.18744	-789.76691	-533.68945	1188.4897	-503.92752	-280.60364	982.02094	-178.79823	-312.06586	1085.6462	-181.34157	-603.73962	964.95746	158.46672	-593.61517	1065.6462	201.47176
443	2.205	-517.5802	141.56425	-567.46222	-542.46313	157.02831	-516.91522	-330.31586	557.15662	-549.85712	-405.32098	548.67444	-471.41052	-423.12885	985.98279	-787.82581	-532.69867	1189.6686	-505.41406	-282.05646	986.25061	-179.3728	-312.92252	1088.9443	-182.97925	-556.57526	981.34015	200.58643	-539.83807	1086.0127	237.50568
444	2.21	-520.64691	140.55533	-565.93152	-545.71881	155.70415	-515.29932	-332.66205	555.89838	-546.41083	-408.86646	547.37238	-468.44623	-423.80078	984.08905	-785.53577	-532.32233	1190.3762	-506.9902	-286.47391	989.54504	-178.78958	-315.90546	1090.8237	-182.55028	-505.77225	997.2796	236.64856	-481.90414	1105.1161	266.173
445	2.215	-523.40082	139.2296	-564.68457	-548.34332	154.09213	-514.00073	-334.75906	554.75201	-543.16254	-412.47452	546.27496	-465.1506	-423.6312	982.67621	-783.06293	-533.49298	1190.1586	-507.96045	-292.7066	991.44189	-176.4467	-321.0119	1091.9675	-180.4303	-446.65573	1014.2113	264.26758	-421.32083	1122.8057	286.34225
446	2.22	-525.77869	137.72951	-563.88208	-551.04169	152.41353	-513.41711	-337.84677	552.98102	-539.08868	-415.22351	545.05542	-463.03033	-422.73672	981.79962	-779.91821	-535.2608	1190.0348	-507.20465	-300.44089	992.63135	-172.52039	-328.6557	1093.2924	-177.28842	-387.96036	1028.1517	282.68311	-360.41904	1137.068	296.02713
447	2.225	-527.86407	136.00725	-563.3739	-553.48303	150.55498	-513.03363	-339.30365	551.72852	-536.45752	-418.72604	543.66626	-459.50464	-421.30084	981.11298	-776.53137	-537.37695	1189.6133	-505.56128	-308.76749	993.68103	-167.7444	-337.59003	1095.5892	-173.24876	-331.17975	1036.9553	289.66818	-301.28656	1148.6243	292.79105
448	2.23	-529.646	134.34558	-563.18585	-555.98529	148.90849	-513.01337	-340.77798	550.37122	-533.31165	-421.23221	541.66486	-457.56476	-419.30194	980.80457	-772.59198	-539.72192	1189.1346	-502.93445	-316.21146	993.89087	-163.12904	-345.59222	1099.3552	-167.61577	-307.63107	1046.796	286.43713	-278.19342	1151.8418	288.28107
449	2.235	-531.44812	132.64378	-563.2464	-558.06427	147.01686	-513.19122	-342.44363	548.45892	-529.88318	-423.72162	539.83557	-454.49826	-416.90775	980.81744	-767.49054	-542.21259	1188.8052	-499.41827	-319.67477	991.54712	-159.27757	-349.10056	1107.014	-162.83379	-306.45892	1052.2036	284.97818	-267.24307	1155.8951	289.69815
450	2.24	-532.79498	130.8526	-563.57678	-559.72736	145.13849	-513.57086	-343.67987	546.63928	-526.49237	-425.28333	537.7926	-452.00552	-414.17429	980.89978	-761.69812	-544.71973	1189.1161	-494.49094	-314.18271	993.28595	-156.21442	-342.53601	1112.8052	-161.69286	-315.74118	1058.8616	288.28314	-263.16684	1159.6257	291.29224
451	2.245	-533.48572	129.36256	-564.01849	-560.9491	143.41409	-514.10046	-344.80579	544.84222	-522.76965	-427.51276	535.54388	-447.85281	-411.36575	980.90076	-755.52649	-547.16949	1189.7085	-490.27771	-304.2991	1000.5391	-154.8891	-329.07819	1113.5104	-162.62964	-324.44565	1061.8727	289.79919	-262.4747	1163.0135	290.05331
452	2.25	-533.4165	128.17392	-564.67743	-561.52649	141.70911	-515.02234	-346.46274	543.21143	-518.15607	-428.41061	532.79657	-445.68781	-408.6922	980.64264	-749.07208	-549.92767	1190.6709	-486.34543	-294.34558	1007.6163	-157.35818	-316.91916	1111.7427	-163.59578	-325.82913	1057.9631	290.38297	-265.57727	1163.9952	289.43857
453	2.255	-532.43933	127.2942	-565.17365	-561.60046	140.61856	-515.85681	-347.42346	542.27313	-513.53424	-429.71552	530.12299	-442.81503	-406.32678	980.20044	-742.80334	-553.05176	1191.577	-482.60233	-288.31171	1014.4725	-160.89748	-312.02097	1112.5918	-164.76109	-324.13791	1051.1494	290.03793	-270.12079	1160.8713	289.63272
454	2.26	-530.99414	126.74266	-565.75555	-561.39276	139.86481	-516.9082	-348.43481	541.91925	-508.30328	-430.92294	528.78766	-438.78574	-404.5874	979.29779	-736.43347	-556.65204	1191.9003	-479.46902	-289.04022	1017.4023	-158.71008	-312.24243	1114.8466	-166.00911	-326.62595	1045.4227	287.11029	-276.37115	1156.1947	289.74329
455	2.265	-529.31842	126.46337	-566.04938	-560.88983	139.28551	-517.81757	-349.11157	542.12299	-502.82687	-432.09958	527.34772	-436.30362	-403.10645	978.25452	-730.27771	-560.45819	1192.6993	-476.22238	-291.01678	1016.7202	-155.7693	-312.43576	1117.1108	-163.74771	-334.64014	1040.3232	285.95682	-282.49158	1150.2777	291.9234
456	2.27	-527.60822	126.57275	-566.26123	-560.04224	138.92363	-518.51825	-349.97604	542.55176	-497.00668	-434.60687	528.38037	-429.78598	-401.82037	976.93671	-724.20776	-563.47998	1193.1836	-474.61639	-292.80243	1016.6812	-155.82585	-314.75327	1118.9276	-161.31868	-340.34479	1033.2915	285.58609	-289.39606	1143.9225	294.62534
